# xmcd CD database file
#
# Track frame offsets:
#	150
#	23397
#	37476
#	52525
#	70716
#	89550
#	105065
#	119485
#
# Disc length: 1801 seconds
#
# Revision: 0
# Processed by: cddbd v1.5.2PL0 Copyright (c) Steve Scherf et al.
# Submitted via: CDex 1.51
#
DISCID=59070708
DTITLE=Julia Farino - accompanied by Andrew Sterling
DYEAR=1900
DGENRE=Jazz
TTITLE0=Bewitched
TTITLE1=They cant take that away from me
TTITLE2=All of me
TTITLE3=You made me love you
TTITLE4=Night and day
TTITLE5=Skylark
TTITLE6=Someone to watch over me
TTITLE7=Forty second street
EXTD=
EXTT0=
EXTT1=
EXTT2=
EXTT3=
EXTT4=
EXTT5=
EXTT6=
EXTT7=
PLAYORDER=
